{"title":"Xmen(2000)MP-4[DaScubaDude]","uid":12359327,"size":1046530057,"categoryP":"video","categoryS":"movies","magnet":"?xt=urn:btih:4b0bf1971c4720d91f757078f7fe13872b14b0f4&amp;dn=Xmen%282000%29MP-4%5BDaScubaDude%5D&amp;tr=udp%3A%2F%2Ftracker.openbittorrent.com%3A80&amp;tr=udp%3A%2F%2Fopen.demonii.com%3A1337&amp;tr=udp%3A%2F%2Ftracker.coppersurfer.tk%3A6969&amp;tr=udp%3A%2F%2Fexodus.desync.com%3A6969","seeders":3,"leechers":0,"uploader":"dascuba","files":1,"time":1441512271,"description":"X-Men (2000)\nPG-13  |  104 min  |  Action, Adventure, Sci-Fi  |  14 July 2000 (USA)\n7.4 Your rating:   -/10   Ratings: 7.4/10 from 405,127 users   Metascore: 64/100 \nReviews: 1,390 user | 286 critic | 33 from Metacritic.com\nTwo mutants come to a private academy for their kind whose resident superhero team must oppose a terrorist organization with similar powers.\n\nDirector: Bryan Singer\nWriters: Tom DeSanto (story), Bryan Singer (story), 1 more credit Â»\nStars: Patrick Stewart, Hugh Jackman, Ian McKellen\n\nGeneral\nComplete name                            : C:X MENXMEN_Title1.mp4\nFormat                                   : MPEG-4\nFormat profile                           : Base Media\nCodec ID                                 : isom\nFile size                                : 998 MiB\nDuration                                 : 1h 44mn\nOverall bit rate                         : 1 339 Kbps\nMovie name                               : XMEN\nGenre                                    : Action\nWriting application                      : Lavf54.6.100\n\nVideo\nID                                       : 1\nFormat                                   : AVC\nFormat/Info                              : Advanced Video Codec\nFormat profile                           : Baseline@L3\nFormat settings, CABAC                   : No\nFormat settings, ReFrames                : 6 frames\nCodec ID                                 : avc1\nCodec ID/Info                            : Advanced Video Coding\nDuration                                 : 1h 44mn\nBit rate                                 : 1 204 Kbps\nWidth                                    : 720 pixels\nHeight                                   : 404 pixels\nDisplay aspect ratio                     : 16:9\nFrame rate mode                          : Constant\nFrame rate                               : 29.970 fps\nColor space                              : YUV\nChroma subsampling                       : 4:2:0\nBit depth                                : 8 bits\nScan type                                : Progressive\nBits/(Pixel*Frame)                       : 0.138\nStream size                              : 898 MiB (90%)\n\nAudio\nID                                       : 2\nFormat                                   : AAC\nFormat/Info                              : Advanced Audio Codec\nFormat profile                           : LC\nCodec ID                                 : 40\nDuration                                 : 1h 44mn\nBit rate mode                            : Constant\nBit rate                                 : 128 Kbps\nChannel(s)                               : 2 channels\nChannel positions                        : Front: L R\nSampling rate                            : 44.1 KHz\nCompression mode                         : Lossy\nStream size                              : 95.4 MiB (10%)","torrent":{"xt":"urn:btih:4b0bf1971c4720d91f757078f7fe13872b14b0f4","amp;dn":"Xmen%282000%29MP-4%5BDaScubaDude%5D","amp;tr":["udp%3A%2F%2Ftracker.openbittorrent.com%3A80","udp%3A%2F%2Fopen.demonii.com%3A1337","udp%3A%2F%2Ftracker.coppersurfer.tk%3A6969","udp%3A%2F%2Fexodus.desync.com%3A6969"],"infoHash":"4b0bf1971c4720d91f757078f7fe13872b14b0f4","infoHashBuffer":{"type":"Buffer","data":[75,11,241,151,28,71,32,217,31,117,112,120,247,254,19,135,43,20,176,244]},"announce":[],"urlList":[]}}